<?xml version="1.0" encoding="UTF-8"?>
<!-- Created with Inkscape (http://www.inkscape.org/) -->
<svg width="89.694mm" height="22.455mm" version="1.1" viewBox="0 0 89.694 22.455" xml:space="preserve" xmlns="http://www.w3.org/2000/svg" xmlns:xlink="http://www.w3.org/1999/xlink"><defs><clipPath id="clipPath2"><path transform="translate(-321.65 -321.78)" d="m0 612h792v-612h-792z"/></clipPath><clipPath id="clipPath4"><path transform="translate(-317.19 -289.73)" d="m0 612h792v-612h-792z"/></clipPath><clipPath id="clipPath6"><path transform="translate(-451.84 -303.99)" d="m0 612h792v-612h-792z"/></clipPath><clipPath id="clipPath8"><path d="m0 612h792v-612h-792z"/></clipPath><clipPath id="clipPath10"><path d="m0 612h792v-612h-792z"/></clipPath><clipPath id="clipPath12"><path transform="translate(-267.8 -292.92)" d="m0 612h792v-612h-792z"/></clipPath><clipPath id="clipPath14"><path transform="translate(-285.88 -308.29)" d="m0 612h792v-612h-792z"/></clipPath><clipPath id="clipPath16"><path transform="translate(-284.5 -331.9)" d="m0 612h792v-612h-792z"/></clipPath><clipPath id="clipPath18"><path transform="translate(-244.3 -355.7)" d="m0 612h792v-612h-792z"/></clipPath><clipPath id="clipPath20"><path transform="translate(-223.46 -344.97)" d="m0 612h792v-612h-792z"/></clipPath><clipPath id="clipPath22"><path transform="translate(-219.52 -321.29)" d="m0 612h792v-612h-792z"/></clipPath><clipPath id="clipPath24"><path transform="translate(-200 -282.24)" d="m0 612h792v-612h-792z"/></clipPath><clipPath id="clipPath26"><path transform="translate(-219.52 -290.54)" d="m0 612h792v-612h-792z"/></clipPath><clipPath id="clipPath28"><path transform="translate(-219.52 -316.54)" d="m0 612h792v-612h-792z"/></clipPath><clipPath id="clipPath30"><path transform="translate(-200 -308.24)" d="m0 612h792v-612h-792z"/></clipPath><clipPath id="clipPath32"><path transform="translate(-223.35 -266.79)" d="m0 612h792v-612h-792z"/></clipPath><clipPath id="clipPath34"><path transform="translate(-240.29 -279.92)" d="m0 612h792v-612h-792z"/></clipPath><clipPath id="clipPath36"><path transform="translate(-241.57 -303.5)" d="m0 612h792v-612h-792z"/></clipPath><clipPath id="clipPath38"><path transform="translate(-240.29 -305.92)" d="m0 612h792v-612h-792z"/></clipPath><clipPath id="clipPath40"><path transform="translate(-222.25 -321.31)" d="m0 612h792v-612h-792z"/></clipPath><clipPath id="clipPath42"><path transform="translate(-241.57 -329.49)" d="m0 612h792v-612h-792z"/></clipPath><clipPath id="clipPath44"><path transform="translate(-244.3 -256)" d="m0 612h792v-612h-792z"/></clipPath><clipPath id="clipPath46"><path transform="translate(-263.62 -290.46)" d="m0 612h792v-612h-792z"/></clipPath><clipPath id="clipPath48"><path transform="translate(-262.41 -292.92)" d="m0 612h792v-612h-792z"/></clipPath><clipPath id="clipPath50"><path transform="translate(-263.62 -316.46)" d="m0 612h792v-612h-792z"/></clipPath><clipPath id="clipPath52"><path transform="translate(-244.3 -308.27)" d="m0 612h792v-612h-792z"/></clipPath><clipPath id="clipPath54"><path transform="translate(-263.62 -342.45)" d="m0 612h792v-612h-792z"/></clipPath><clipPath id="clipPath56"><path transform="translate(-266.35 -316.6)" d="m0 612h792v-612h-792z"/></clipPath><clipPath id="clipPath58"><path transform="translate(-266.35 -290.6)" d="m0 612h792v-612h-792z"/></clipPath><clipPath id="clipPath60"><path transform="translate(-595.35 -330.64)" d="m0 612h792v-612h-792z"/></clipPath></defs><g transform="matrix(.26458 0 0 .26458 338.13 -57.698)"><g fill="#4d384d"><path transform="matrix(.8513 0 0 -.8513 -1174.4 246.94)" d="m0 0-8.271 10.675h-2.514v-15.439h2.668v10.984l8.514-10.984h2.272v15.439h-2.669zm14.182 10.785h-2.515l-6.793-15.549h2.779l1.588 3.727h7.301l1.566-3.727h2.867zm1.367-9.418h-5.315l2.647 6.176zm11.953 6.794h4.896v2.514h-12.528v-2.514h4.897v-12.925h2.735zm7.918-12.925h2.713v15.439h-2.713zm21.857 7.742c0 4.367-3.309 7.962-8.051 7.962s-8.094-3.639-8.094-8.007c0-4.367 3.308-7.962 8.05-7.962s8.095 3.639 8.095 8.007m-2.845-0.045c0-3.021-2.14-5.469-5.206-5.469-3.065 0-5.249 2.492-5.249 5.514 0 3.021 2.139 5.469 5.205 5.469s5.25-2.492 5.25-5.514m16.696-2.933-8.271 10.675h-2.515v-15.439h2.669v10.984l8.514-10.984h2.271v15.439h-2.668zm14.623 10.785h-2.515l-6.793-15.549h2.779l1.588 3.727h7.301l1.566-3.727h2.867zm1.367-9.418h-5.315l2.646 6.176zm8.072-6.131h10.83v2.47h-8.117v12.969h-2.713zm28.254 15.549h-2.515l-6.793-15.549h2.779l1.588 3.727h7.301l1.566-3.727h2.867zm1.367-9.418h-5.315l2.646 6.176zm10.124 5.272c0 1.036 0.926 1.853 2.514 1.853 1.412 0 2.801-0.552 4.191-1.588l1.456 2.051c-1.566 1.257-3.353 1.941-5.603 1.941-3.065 0-5.271-1.809-5.271-4.5 0-2.867 1.853-3.837 5.139-4.632 2.867-0.661 3.485-1.257 3.485-2.382 0-1.191-1.059-1.963-2.735-1.963-1.92 0-3.397 0.728-4.874 2.008l-1.633-1.941c1.853-1.655 4.081-2.471 6.441-2.471 3.242 0 5.514 1.721 5.514 4.632 0 2.581-1.698 3.75-4.963 4.544-2.955 0.705-3.661 1.235-3.661 2.448m13.895 0c0 1.036 0.926 1.853 2.514 1.853 1.412 0 2.802-0.552 4.191-1.588l1.456 2.051c-1.566 1.257-3.353 1.941-5.602 1.941-3.066 0-5.272-1.809-5.272-4.5 0-2.867 1.853-3.837 5.139-4.632 2.868-0.661 3.485-1.257 3.485-2.382 0-1.191-1.059-1.963-2.735-1.963-1.919 0-3.398 0.728-4.874 2.008l-1.632-1.941c1.852-1.655 4.08-2.471 6.439-2.471 3.243 0 5.515 1.721 5.515 4.632 0 2.581-1.698 3.75-4.963 4.544-2.955 0.705-3.661 1.235-3.661 2.448m27.063-3.661c0 4.367-3.309 7.962-8.051 7.962s-8.094-3.639-8.094-8.007c0-4.367 3.308-7.962 8.05-7.962s8.095 3.639 8.095 8.007m-2.845-0.045c0-3.021-2.14-5.469-5.206-5.469-3.065 0-5.249 2.492-5.249 5.514 0 3.021 2.138 5.469 5.205 5.469 3.066 0 5.25-2.492 5.25-5.514m19.342-5.227-1.743 1.765c-1.322-1.235-2.535-2.007-4.432-2.007-2.956 0-5.095 2.47-5.095 5.514 0 3.043 2.139 5.469 5.095 5.469 1.764 0 3.088-0.772 4.323-1.918l1.742 2.007c-1.478 1.411-3.198 2.404-6.043 2.404-4.676 0-7.963-3.595-7.963-8.007 0-4.455 3.353-7.962 7.853-7.962 2.889 0 4.653 1.059 6.263 2.735m3-2.47h2.713v15.439h-2.713zm14.821 15.549h-2.514l-6.793-15.549h2.779l1.588 3.727h7.3l1.566-3.727h2.867zm1.368-9.418h-5.316l2.647 6.176zm12.614 6.794h4.896v2.514h-12.528v-2.514h4.897v-12.925h2.735zm7.918-12.925h2.713v15.439h-2.713zm21.857 7.742c0 4.367-3.309 7.962-8.051 7.962s-8.094-3.639-8.094-8.007c0-4.367 3.308-7.962 8.05-7.962s8.095 3.639 8.095 8.007m-2.845-0.045c0-3.021-2.141-5.469-5.206-5.469s-5.249 2.492-5.249 5.514c0 3.021 2.139 5.469 5.205 5.469 3.065 0 5.25-2.492 5.25-5.514m16.475-2.933-8.271 10.675h-2.515v-15.439h2.669v10.984l8.514-10.984h2.272v15.439h-2.669z" clip-path="url(#clipPath2)"/><path transform="matrix(.8513 0 0 -.8513 -1178.2 274.23)" d="m0 0h-1.71l-4.62-10.575h1.89l1.08 2.535h4.965l1.065-2.535h1.95zm0.93-6.405h-3.615l1.8 4.2zm14.685 1.095c0 2.97-2.28 5.235-5.58 5.235h-3.915v-10.5h3.915c3.3 0 5.58 2.295 5.58 5.265m-1.935-0.03c0-2.07-1.44-3.555-3.645-3.555h-2.07v7.14h2.07c2.205 0 3.645-1.515 3.645-3.585m13.665 0.03c0 2.97-2.28 5.235-5.58 5.235h-3.915v-10.5h3.915c3.3 0 5.58 2.295 5.58 5.265m-1.935-0.03c0-2.07-1.44-3.555-3.645-3.555h-2.07v7.14h2.07c2.205 0 3.645-1.515 3.645-3.585m4.275-5.235h1.845v10.5h-1.845zm13.785 1.68-1.185 1.201c-0.9-0.841-1.725-1.366-3.015-1.366-2.01 0-3.465 1.68-3.465 3.75s1.455 3.72 3.465 3.72c1.2 0 2.1-0.525 2.94-1.305l1.185 1.365c-1.005 0.961-2.175 1.635-4.11 1.635-3.18 0-5.415-2.445-5.415-5.445 0-3.03 2.28-5.415 5.34-5.415 1.965 0 3.165 0.72 4.26 1.86m6.075 7.11h3.33v1.71h-8.52v-1.71h3.33v-8.79h1.86zm5.235-8.79h1.845v10.5h-1.845zm14.865 5.265c0 2.97-2.25 5.415-5.475 5.415s-5.505-2.475-5.505-5.445 2.25-5.415 5.475-5.415 5.505 2.475 5.505 5.445m-1.935-0.03c0-2.055-1.455-3.72-3.54-3.72s-3.57 1.695-3.57 3.75 1.455 3.72 3.54 3.72 3.57-1.695 3.57-3.75m11.205-1.995-5.625 7.26h-1.71v-10.5h1.815v7.471l5.79-7.471h1.545v10.5h-1.815zm13.456 5.55h3.329v1.71h-8.52v-1.71h3.33v-8.79h1.861zm13.889-8.79-2.835 3.975c1.47 0.406 2.505 1.455 2.505 3.195 0 2.055-1.485 3.33-3.9 3.33h-4.68v-10.5h1.845v3.66h2.31l2.58-3.66zm-2.205 7.065c0-1.08-0.84-1.77-2.16-1.77h-2.7v3.525h2.685c1.366 0 2.175-0.599 2.175-1.755m11.925 3.435h-7.785v-10.5h7.86v1.65h-6.014v2.821h5.264v1.649h-5.264v2.73h5.939zm7.695 0.075h-1.71l-4.62-10.575h1.89l1.08 2.535h4.965l1.065-2.535h1.95zm0.93-6.405h-3.615l1.801 4.2zm8.429 4.62h3.33v1.71h-8.52v-1.71h3.33v-8.79h1.86zm13.605-1.26v-7.53h1.845v10.5h-1.965l-3.195-4.965-3.195 4.965h-1.964v-10.5h1.814v7.5l3.285-4.92h0.06zm12.33 2.97h-7.785v-10.5h7.86v1.65h-6.015v2.821h5.265v1.649h-5.265v2.73h5.94zm9.6-7.26-5.625 7.26h-1.71v-10.5h1.815v7.471l5.79-7.471h1.545v10.5h-1.815zm8.955 5.55h3.33v1.71h-8.52v-1.71h3.331v-8.79h1.859zm17.91-1.815c0 2.145-1.545 3.525-3.99 3.525h-4.14v-10.5h1.845v3.375h2.085c2.31 0 4.2 1.23 4.2 3.6m-1.875-0.045c0-1.125-0.87-1.89-2.265-1.89h-2.145v3.78h2.145c1.38 0 2.265-0.644 2.265-1.89m12.675-6.93-2.835 3.975c1.471 0.406 2.505 1.455 2.505 3.195 0 2.055-1.485 3.33-3.9 3.33h-4.68v-10.5h1.845v3.66h2.31l2.58-3.66zm-2.205 7.065c0-1.08-0.84-1.77-2.159-1.77h-2.701v3.525h2.685c1.365 0 2.175-0.599 2.175-1.755m14.355-1.8c0 2.97-2.25 5.415-5.475 5.415s-5.505-2.475-5.505-5.445 2.25-5.415 5.475-5.415 5.505 2.475 5.505 5.445m-1.935-0.03c0-2.055-1.454-3.72-3.54-3.72-2.085 0-3.57 1.695-3.57 3.75s1.455 3.72 3.54 3.72 3.57-1.695 3.57-3.75m7.53-2.805-3.165 8.07h-2.04l4.365-10.574h1.62l4.366 10.574h-1.996zm6.9-2.43h1.845v10.5h-1.845zm14.145 5.265c0 2.97-2.279 5.235-5.58 5.235h-3.915v-10.5h3.915c3.301 0 5.58 2.295 5.58 5.265m-1.935-0.03c0-2.07-1.44-3.555-3.645-3.555h-2.069v7.14h2.069c2.205 0 3.645-1.515 3.645-3.585m11.656 5.265h-7.786v-10.5h7.86v1.65h-6.015v2.821h5.265v1.649h-5.265v2.73h5.941zm11.174-10.5-2.835 3.975c1.47 0.406 2.505 1.455 2.505 3.195 0 2.055-1.485 3.33-3.9 3.33h-4.68v-10.5h1.845v3.66h2.311l2.58-3.66zm-2.205 7.065c0-1.08-0.839-1.77-2.16-1.77h-2.7v3.525h2.686c1.364 0 2.174-0.599 2.174-1.755m5.4 0.691c0 0.704 0.631 1.259 1.71 1.259 0.96 0 1.905-0.375 2.85-1.08l0.991 1.395c-1.066 0.855-2.281 1.32-3.811 1.32-2.085 0-3.585-1.23-3.585-3.059 0-1.951 1.26-2.611 3.495-3.151 1.95-0.45 2.37-0.855 2.37-1.62 0-0.809-0.719-1.335-1.86-1.335-1.305 0-2.31 0.495-3.315 1.365l-1.11-1.32c1.26-1.125 2.776-1.68 4.38-1.68 2.205 0 3.75 1.17 3.75 3.15 0 1.756-1.155 2.551-3.375 3.091-2.01 0.479-2.49 0.839-2.49 1.665" clip-path="url(#clipPath4)"/><path transform="matrix(.8513 0 0 -.8513 -1063.6 262.09)" d="m0 0c0 2.652-2.009 4.834-4.888 4.834s-4.915-2.209-4.915-4.861 2.009-4.834 4.888-4.834 4.915 2.209 4.915 4.861m-1.728-0.027c0-1.834-1.298-3.322-3.16-3.322s-3.186 1.514-3.186 3.349c0 1.834 1.299 3.321 3.159 3.321 1.862 0 3.187-1.513 3.187-3.348m10.702 4.701h-6.979v-9.375h1.649v3.816h4.726v1.5h-4.726v2.559h5.33z" clip-path="url(#clipPath6)"/></g><path transform="matrix(.8513 0 0 -.8513 -1448.2 520.88)" d="m467.49 303.14h124.68v1.47h-124.68z" clip-path="url(#clipPath8)" fill="#cb612a"/><path transform="matrix(.8513 0 0 -.8513 -1448.2 520.88)" d="m310.86 303.14h124.68v1.47h-124.68z" clip-path="url(#clipPath10)" fill="#cb612a"/><path transform="matrix(.8513 0 0 -.8513 -1220.3 271.51)" d="m0 0 18.075-10.621v21.242z" clip-path="url(#clipPath12)" fill="#4d384d"/><path transform="matrix(.8513 0 0 -.8513 -1204.9 258.43)" d="m0 0v21.243l-18.075-10.622z" clip-path="url(#clipPath14)" fill="#4d384d"/><g fill="#b7aea5"><path transform="matrix(.8513 0 0 -.8513 -1206.1 238.33)" d="m0 0-18.145 10.744v-21.407z" clip-path="url(#clipPath16)"/><path transform="matrix(.8513 0 0 -.8513 -1240.3 218.07)" d="m0 0v-21.425l18.161 10.672z" clip-path="url(#clipPath18)"/><path transform="matrix(.8513 0 0 -.8513 -1258 227.2)" d="m0 0 18.106-10.64v21.361z" clip-path="url(#clipPath20)"/><path transform="matrix(.8513 0 0 -.8513 -1261.4 247.36)" d="m0 0v21.343l-18.091-10.712z" clip-path="url(#clipPath22)"/></g><g fill="#cb612a"><path transform="matrix(.8513 0 0 -.8513 -1278 280.6)" d="M 0,0 18.169,10.677 0,21.354 Z" clip-path="url(#clipPath24)"/><path transform="matrix(.8513 0 0 -.8513 -1261.4 273.54)" d="m0 0-18.205-10.698 18.205-10.781z" clip-path="url(#clipPath26)"/><path transform="matrix(.8513 0 0 -.8513 -1261.4 251.41)" d="m0 0-18.073-10.62 18.073-10.621z" clip-path="url(#clipPath28)"/><path transform="matrix(.8513 0 0 -.8513 -1278 258.47)" d="M 0,0 18.169,10.677 0,21.353 Z" clip-path="url(#clipPath30)"/><path transform="matrix(.8513 0 0 -.8513 -1258.1 293.75)" d="m0 0 18.221-10.789v21.496z" clip-path="url(#clipPath32)"/><path transform="matrix(.8513 0 0 -.8513 -1243.7 282.58)" d="m0 0-18.038 10.6v-21.201z" clip-path="url(#clipPath34)"/><path transform="matrix(.8513 0 0 -.8513 -1242.6 262.51)" d="m0 0-18.005-10.58 18.005-10.58z" clip-path="url(#clipPath36)"/><path transform="matrix(.8513 0 0 -.8513 -1243.7 260.45)" d="m0 0-18.038 10.6v-21.2z" clip-path="url(#clipPath38)"/></g><path transform="matrix(.8513 0 0 -.8513 -1259 247.34)" d="M 0,0 18.038,10.6 0,21.199 Z" clip-path="url(#clipPath40)" fill="#b7aea5"/><path transform="matrix(.8513 0 0 -.8513 -1242.6 240.38)" d="m0 0-18.005-10.58 18.005-10.58z" clip-path="url(#clipPath42)" fill="#b7aea5"/><g fill="#4d384d"><path transform="matrix(.8513 0 0 -.8513 -1240.3 302.94)" d="M 0,0 18.275,10.822 0,21.561 Z" clip-path="url(#clipPath44)"/><path transform="matrix(.8513 0 0 -.8513 -1223.8 273.61)" d="m0 0-17.936-10.54 17.936-10.539z" clip-path="url(#clipPath46)"/><path transform="matrix(.8513 0 0 -.8513 -1224.9 271.51)" d="m0 0-18.107 10.64v-21.281z" clip-path="url(#clipPath48)"/><path transform="matrix(.8513 0 0 -.8513 -1223.8 251.48)" d="m0 0-17.936-10.54 17.936-10.539z" clip-path="url(#clipPath50)"/></g><path transform="matrix(.8513 0 0 -.8513 -1240.3 258.44)" d="M 0,0 18.106,10.64 0,21.28 Z" clip-path="url(#clipPath52)" fill="#b7aea5"/><path transform="matrix(.8513 0 0 -.8513 -1223.8 229.35)" d="m0 0-17.936-10.54 17.936-10.539z" clip-path="url(#clipPath54)" fill="#b7aea5"/><g fill="#4d384d"><path transform="matrix(.8513 0 0 -.8513 -1221.5 251.36)" d="m0 0v-21.361l18.175 10.681z" clip-path="url(#clipPath56)"/><path transform="matrix(.8513 0 0 -.8513 -1221.5 273.49)" d="m0 0v-21.543l18.26 10.814z" clip-path="url(#clipPath58)"/><path transform="matrix(.8513 0 0 -.8513 -941.43 239.41)" d="m0 0h0.435c0.093 0 0.186 3e-3 0.276 0.01 0.089 6e-3 0.168 0.024 0.236 0.054 0.069 0.03 0.124 0.077 0.166 0.141 0.043 0.064 0.065 0.151 0.065 0.262 0 0.094-0.02 0.17-0.058 0.227-0.038 0.058-0.088 0.102-0.147 0.132-0.06 0.029-0.126 0.049-0.199 0.057-0.072 9e-3 -0.144 0.013-0.217 0.013h-0.557zm-0.422 1.242h1.049c0.648 0 0.973-0.265 0.973-0.794 0-0.252-0.071-0.436-0.211-0.553-0.141-0.118-0.316-0.187-0.526-0.208l0.801-1.229h-0.455l-0.755 1.196h-0.454v-1.196h-0.422zm-1.051-1.395c0-0.291 0.052-0.559 0.155-0.807 0.102-0.248 0.24-0.462 0.416-0.643 0.174-0.181 0.381-0.324 0.621-0.429 0.239-0.105 0.494-0.156 0.767-0.156s0.529 0.051 0.765 0.156c0.237 0.105 0.444 0.248 0.621 0.429s0.316 0.395 0.419 0.643 0.154 0.516 0.154 0.807c0 0.285-0.051 0.553-0.154 0.802-0.103 0.25-0.242 0.466-0.419 0.647-0.177 0.182-0.384 0.324-0.621 0.429-0.236 0.105-0.492 0.157-0.765 0.157s-0.528-0.052-0.767-0.157c-0.24-0.105-0.447-0.247-0.621-0.429-0.176-0.181-0.314-0.397-0.416-0.647-0.103-0.249-0.155-0.517-0.155-0.802m-0.422 0c0 0.337 0.063 0.651 0.189 0.944 0.126 0.292 0.298 0.543 0.516 0.755 0.217 0.211 0.47 0.377 0.757 0.499 0.288 0.122 0.595 0.183 0.919 0.183 0.325 0 0.631-0.061 0.918-0.183 0.288-0.122 0.542-0.288 0.759-0.499 0.218-0.212 0.389-0.463 0.516-0.755 0.126-0.293 0.188-0.607 0.188-0.944 0-0.342-0.062-0.658-0.188-0.948-0.127-0.29-0.298-0.54-0.516-0.752-0.217-0.211-0.471-0.377-0.759-0.499-0.287-0.121-0.593-0.182-0.918-0.182-0.324 0-0.631 0.061-0.919 0.182-0.287 0.122-0.54 0.288-0.757 0.499-0.218 0.212-0.39 0.462-0.516 0.752s-0.189 0.606-0.189 0.948" clip-path="url(#clipPath60)"/></g></g></svg>
